<svg width="16" height="17" viewBox="0 0 16 17" fill="none" xmlns="http://www.w3.org/2000/svg">
<path d="M8.00371 4.33696C5.76777 4.33696 3.96426 6.14048 3.96426 8.37642C3.96426 10.6124 5.76777 12.4159 8.00371 12.4159C10.2396 12.4159 12.0432 10.6124 12.0432 8.37642C12.0432 6.14048 10.2396 4.33696 8.00371 4.33696ZM8.00371 11.0026C6.55879 11.0026 5.37754 9.82485 5.37754 8.37642C5.37754 6.92798 6.55527 5.75024 8.00371 5.75024C9.45215 5.75024 10.6299 6.92798 10.6299 8.37642C10.6299 9.82485 9.44863 11.0026 8.00371 11.0026ZM13.1506 4.17173C13.1506 4.69556 12.7287 5.11392 12.2084 5.11392C11.6846 5.11392 11.2662 4.69204 11.2662 4.17173C11.2662 3.65142 11.6881 3.22954 12.2084 3.22954C12.7287 3.22954 13.1506 3.65142 13.1506 4.17173ZM15.826 5.12798C15.7662 3.86587 15.4779 2.7479 14.5533 1.82681C13.6322 0.905713 12.5143 0.617432 11.2521 0.55415C9.95137 0.480322 6.05254 0.480322 4.75176 0.55415C3.49316 0.613916 2.3752 0.902197 1.45059 1.82329C0.525977 2.74438 0.241211 3.86235 0.17793 5.12446C0.104102 6.42524 0.104102 10.3241 0.17793 11.6249C0.237695 12.887 0.525977 14.0049 1.45059 14.926C2.3752 15.8471 3.48965 16.1354 4.75176 16.1987C6.05254 16.2725 9.95137 16.2725 11.2521 16.1987C12.5143 16.1389 13.6322 15.8506 14.5533 14.926C15.4744 14.0049 15.7627 12.887 15.826 11.6249C15.8998 10.3241 15.8998 6.42876 15.826 5.12798ZM14.1455 13.0206C13.8713 13.7096 13.3404 14.2405 12.6479 14.5182C11.6107 14.9295 9.14981 14.8346 8.00371 14.8346C6.85762 14.8346 4.39316 14.926 3.35957 14.5182C2.67051 14.244 2.13965 13.7131 1.86191 13.0206C1.45059 11.9834 1.54551 9.52251 1.54551 8.37642C1.54551 7.23032 1.4541 4.76587 1.86191 3.73228C2.13613 3.04321 2.66699 2.51235 3.35957 2.23462C4.39668 1.82329 6.85762 1.91821 8.00371 1.91821C9.14981 1.91821 11.6143 1.82681 12.6479 2.23462C13.3369 2.50884 13.8678 3.0397 14.1455 3.73228C14.5568 4.76938 14.4619 7.23032 14.4619 8.37642C14.4619 9.52251 14.5568 11.987 14.1455 13.0206Z" fill="white"/>
</svg>
