<svg width="21" height="32" viewBox="0 0 21 32" fill="none" xmlns="http://www.w3.org/2000/svg">
<path d="M5.56031 25.6992C5.62698 25.6992 5.68031 25.6792 5.72031 25.6392L15.5803 16.1792C15.6336 16.1259 15.6603 16.0659 15.6603 15.9992C15.6603 15.9326 15.6336 15.8726 15.5803 15.8192L5.74031 6.37922C5.68698 6.32589 5.63031 6.30256 5.57031 6.30922C5.51031 6.31589 5.45365 6.34255 5.40031 6.38922C5.34698 6.43589 5.32365 6.48922 5.33031 6.54922C5.33698 6.60922 5.36031 6.66589 5.40031 6.71922L15.0803 15.9992L5.40031 25.2792C5.34698 25.3326 5.32031 25.3892 5.32031 25.4492C5.32031 25.5092 5.34698 25.5659 5.40031 25.6192C5.45365 25.6726 5.50698 25.6992 5.56031 25.6992Z" fill="#956842"/>
</svg>
