<svg width="65" height="51" viewBox="0 0 65 51" fill="none" xmlns="http://www.w3.org/2000/svg">
<path d="M57.0781 50.0781C50.1719 46.8281 45.2969 43.1719 42.3516 39.1094C39.2031 34.7422 37.5781 28.75 37.5781 21.1328V1.9375C37.5781 1.22656 38.1875 0.617188 38.8984 0.617188H62.4609C63.1719 0.617188 63.7812 1.22656 63.7812 1.9375V23.5703C63.7812 24.2813 63.1719 24.8906 62.4609 24.8906H53.4219C51.8984 24.8906 50.7812 26.2109 51.0859 27.7344C51.5937 29.9688 52.5078 31.8984 53.9297 33.625C55.5547 35.6562 58.3984 37.6875 62.3594 39.7188C63.0703 40.0234 63.2734 40.8359 62.9688 41.5469L57.0781 50.0781ZM57.0781 50.0781C57.6875 50.3828 58.5 50.0781 58.8047 49.4687L63.0703 41.5469L57.0781 50.0781Z" stroke="#956842" stroke-width="1.01562"/>
<path d="M20.2109 50.0781C13.3047 46.8281 8.42969 43.1719 5.48438 39.1094C2.33594 34.7422 0.710938 28.75 0.710938 21.1328V1.83594C0.710938 1.125 1.32031 0.617188 1.92969 0.617188H25.5938C26.3047 0.617188 26.9141 1.22656 26.9141 1.9375V23.5703C26.9141 24.2813 26.3047 24.8906 25.5938 24.8906H16.4531C14.9297 24.8906 13.8125 26.2109 14.1172 27.7344C14.625 29.9688 15.5391 31.8984 16.9609 33.625C18.5859 35.6562 21.4297 37.6875 25.3906 39.7188C26.1016 40.0234 26.3047 40.8359 26 41.5469L20.2109 50.0781ZM20.2109 50.0781C20.8203 50.3828 21.6328 50.0781 21.9375 49.4687L26.2031 41.5469L20.2109 50.0781Z" stroke="#956842" stroke-width="1.01562"/>
</svg>
