<svg width="35" height="20" viewBox="0 0 35 20" fill="none" xmlns="http://www.w3.org/2000/svg">
<path d="M27.0598 18.6598L21.4398 13.0398C22.5998 11.6798 23.2998 9.93977 23.2998 8.01977C23.2998 3.73977 19.8198 0.259766 15.5398 0.259766C11.2598 0.259766 7.75977 3.73977 7.75977 8.01977C7.75977 12.2998 11.2398 15.7798 15.5198 15.7798C17.4398 15.7798 19.1798 15.0798 20.5398 13.9198L26.1598 19.5398C26.2798 19.6598 26.4398 19.7198 26.5998 19.7198C26.7598 19.7198 26.9198 19.6598 27.0398 19.5398C27.3198 19.3198 27.3198 18.9198 27.0598 18.6598ZM9.01977 8.01977C9.01977 4.43977 11.9398 1.51977 15.5198 1.51977C19.0998 1.51977 22.0198 4.43977 22.0198 8.01977C22.0198 9.79977 21.2998 11.4398 20.1198 12.5998C18.9398 13.7798 17.3198 14.4998 15.5398 14.4998C11.9398 14.5198 9.01977 11.5998 9.01977 8.01977Z" fill="black"/>
</svg>
