<svg width="20" height="20" viewBox="0 0 20 20" fill="none" xmlns="http://www.w3.org/2000/svg">
<path d="M18.6601 17.1999L17.3001 5.61986C17.2601 5.29986 17.0001 5.05986 16.6801 5.05986H14.1601V4.51986C14.1601 2.21986 12.3001 0.359863 10.0001 0.359863C7.70008 0.359863 5.84008 2.21986 5.84008 4.51986V5.05986H3.34008C3.02008 5.05986 2.76008 5.29986 2.72008 5.61986L1.34008 17.1999C1.26008 17.8199 1.46008 18.4399 1.88008 18.9199C2.30008 19.3799 2.90008 19.6599 3.52008 19.6599H16.4601C17.0801 19.6599 17.6801 19.3999 18.1001 18.9199C18.5201 18.4399 18.7201 17.8199 18.6601 17.1999ZM7.10008 4.51986C7.10008 2.91986 8.40008 1.61986 10.0001 1.61986C11.6001 1.61986 12.9001 2.91986 12.9001 4.51986V5.05986H7.10008V4.51986ZM17.1801 18.0799C17.0001 18.2799 16.7401 18.3999 16.4801 18.3999H3.54008C3.26008 18.3999 3.02008 18.2799 2.84008 18.0799C2.66008 17.8799 2.58008 17.6199 2.60008 17.3399L3.90008 6.31986H5.86008V7.25986C5.86008 7.59986 6.14008 7.87986 6.48008 7.87986C6.82008 7.87986 7.10008 7.59986 7.10008 7.25986V6.31986H12.9001V7.25986C12.9001 7.59986 13.1801 7.87986 13.5201 7.87986C13.8601 7.87986 14.1401 7.59986 14.1401 7.25986V6.31986H16.1001L17.4001 17.3399C17.4401 17.6199 17.3601 17.8799 17.1801 18.0799Z" fill="black"/>
</svg>
