<svg width="18" height="18" viewBox="0 0 18 18" fill="none" xmlns="http://www.w3.org/2000/svg">
<path d="M17.9595 14.1848C17.7763 14.6121 17.0019 14.9262 15.5914 15.1452C15.5188 15.2431 15.4587 15.6615 15.3626 15.9874C15.3055 16.183 15.1649 16.2992 14.9362 16.2992L14.9258 16.299C14.5955 16.299 14.2507 16.147 13.5599 16.147C12.6275 16.147 12.3062 16.3594 11.5822 16.8708C10.8147 17.4135 10.0786 17.882 8.97972 17.834C7.86716 17.9161 6.93978 17.2396 6.41785 16.8706C5.68962 16.3558 5.36921 16.147 4.44062 16.147C3.77744 16.147 3.36006 16.313 3.07473 16.313C2.79092 16.313 2.68053 16.1399 2.63802 15.9952C2.543 15.6721 2.48319 15.2476 2.4087 15.1468C1.6817 15.034 0.0423314 14.748 0.000565743 14.0166C-0.00449675 13.9246 0.0245552 13.8341 0.0821492 13.7623C0.139743 13.6905 0.221824 13.6424 0.312648 13.6274C2.75893 13.2247 3.86076 10.7129 3.90657 10.6063C3.90917 10.6001 3.91201 10.5942 3.9149 10.5882C4.04543 10.3232 4.07465 10.1013 4.00149 9.92891C3.82395 9.51069 3.05677 9.36065 2.734 9.23296C1.90027 8.90369 1.78425 8.52533 1.83358 8.26602C1.91925 7.81476 2.59735 7.53706 2.9938 7.72275C3.30736 7.86974 3.58594 7.94413 3.82163 7.94413C3.99818 7.94413 4.11033 7.9018 4.17178 7.86781C4.09996 6.60443 3.92214 4.79902 4.37172 3.79077C5.55905 1.12881 8.07564 0.921952 8.81818 0.921952C8.85136 0.921952 9.13954 0.918823 9.1736 0.918823C11.0069 0.918823 12.7685 1.86031 13.6287 3.78908C14.0779 4.79631 13.9011 6.59427 13.8289 7.86753C13.8845 7.89818 13.9821 7.9358 14.1312 7.94273C14.3561 7.93267 14.6169 7.85874 14.9071 7.72275C15.121 7.6227 15.4136 7.63623 15.6271 7.72479L15.6281 7.72514C15.9613 7.84415 16.1709 8.08426 16.1762 8.35339C16.1826 8.69605 15.8766 8.992 15.2664 9.23293C15.1919 9.26228 15.1014 9.29111 15.005 9.32169C14.6606 9.43089 14.1402 9.59609 13.999 9.92888C13.9259 10.1013 13.9549 10.323 14.0855 10.588C14.0886 10.5939 14.0913 10.6 14.0939 10.6061C14.1396 10.7126 15.2405 13.2238 17.6879 13.6272C17.9139 13.6644 18.0804 13.9041 17.9595 14.1848Z" fill="white"/>
</svg>
