<svg width="19" height="19" viewBox="0 0 19 19" fill="none" xmlns="http://www.w3.org/2000/svg">
<path d="M8.36412 5.33902L6.37111 10.3723L4.40236 5.33902H1.0249L4.74549 14.0975L3.38951 17.2549H6.70018L11.654 5.33902H8.36412ZM12.0696 10.1129C11.6648 10.1129 11.269 10.2329 10.9325 10.4578C10.5959 10.6827 10.3335 11.0024 10.1786 11.3764C10.0237 11.7504 9.98315 12.162 10.0621 12.559C10.1411 12.956 10.336 13.3207 10.6223 13.607C10.9085 13.8932 11.2732 14.0882 11.6703 14.1672C12.0673 14.2461 12.4789 14.2056 12.8529 14.0507C13.2269 13.8958 13.5465 13.6334 13.7714 13.2968C13.9963 12.9602 14.1164 12.5645 14.1164 12.1597C14.1164 11.8909 14.0634 11.6247 13.9606 11.3764C13.8577 11.1281 13.707 10.9024 13.5169 10.7124C13.3268 10.5223 13.1012 10.3716 12.8529 10.2687C12.6045 10.1658 12.3384 10.1129 12.0696 10.1129ZM14.3744 1.50488L11.1049 9.36125H14.7889L18.0455 1.50488H14.3744Z" fill="white"/>
</svg>
