<svg width="18" height="19" viewBox="0 0 18 19" fill="none" xmlns="http://www.w3.org/2000/svg">
<path d="M17.1769 5.25748C16.9806 4.51841 16.4023 3.93635 15.668 3.73882C14.337 3.37988 9.00014 3.37988 9.00014 3.37988C9.00014 3.37988 3.66327 3.37988 2.3323 3.73882C1.59802 3.93638 1.0197 4.51841 0.823422 5.25748C0.466797 6.59707 0.466797 9.39201 0.466797 9.39201C0.466797 9.39201 0.466797 12.1869 0.823422 13.5265C1.0197 14.2656 1.59802 14.8234 2.3323 15.0209C3.66327 15.3799 9.00014 15.3799 9.00014 15.3799C9.00014 15.3799 14.337 15.3799 15.668 15.0209C16.4023 14.8234 16.9806 14.2656 17.1769 13.5265C17.5335 12.1869 17.5335 9.39201 17.5335 9.39201C17.5335 9.39201 17.5335 6.59707 17.1769 5.25748ZM7.25467 11.9296V6.85441L11.7153 9.39207L7.25467 11.9296Z" fill="white"/>
</svg>
